<svg width="20" height="20" viewBox="0 0 20 20" fill="none" xmlns="http://www.w3.org/2000/svg">
<path d="M14.9493 5.0497C13.3505 3.45091 11.1378 2.73762 8.87756 3.08692C6.02369 3.53211 3.65772 5.83089 3.12362 8.67775C2.86673 10.0483 3.01443 11.4441 3.55132 12.7132C3.61992 12.8742 3.64092 13.0254 3.61362 13.1605L3.01373 16.1621C2.96753 16.3917 3.03963 16.629 3.20482 16.7942C3.33712 16.9265 3.51562 16.9993 3.69972 16.9993C3.74522 16.9993 3.79142 16.9951 3.83692 16.9853L6.83498 16.3861C7.00718 16.3532 7.17448 16.4015 7.28577 16.4477C8.55556 16.9846 9.95134 17.1316 11.3212 16.8754C14.1681 16.3413 16.4669 13.9753 16.9121 11.1214C17.2642 8.86185 16.5488 6.64918 14.9493 5.0497" stroke="#9A9A9A"/>
</svg>
